<svg xmlns="http://www.w3.org/2000/svg"  viewBox="0 0 100 100" width="100px" height="100px" baseProfile="basic"><path fill="#f09215" d="M60.961,20.587c-2.165-4.48-6.759-7.969-11.604-9.029C38.989,9.29,28.689,17.075,28.338,27.751	c-0.169,5.134,2.12,10.698,6.153,13.951c4.787,3.863,11.508,5.298,17.338,2.981c0.988-0.393,1.897-1.027,2.578-1.824	c2.041-1.487,3.781-3.44,5.146-5.581c1.482-2.325,2.565-4.971,2.933-7.706C62.909,26.417,62.343,23.447,60.961,20.587z M48.332,27.808c-0.004,0.003-0.007,0.006-0.011,0.01c-0.006,0.002-0.015,0.005-0.021,0.007c0.007-0.005,0.012-0.01,0.02-0.015	C48.326,27.807,48.327,27.809,48.332,27.808z"/><path fill="#733d7e" d="M76.219,65.456c-1.885-2.333-4.246-4.26-6.719-5.94c-4.845-3.292-11.244-5.643-17.217-5.331	c-2.846-0.486-5.75-0.657-8.622-0.54c-8.745,0.355-18.92,1.705-25.272,8.374c-3.442,3.613-5.986,8.319-7.031,13.203	c-0.96,4.486,1.993,8.555,6.655,8.736c13.748,0.532,27.49-0.145,41.24-0.104c3.293,0.01,6.586,0.066,9.877,0.197	c1.958,0.078,3.979,0.362,5.898-0.201c3.531-1.037,6.072-4.293,6.067-8.003C81.09,71.991,78.543,68.333,76.219,65.456z"/><path fill="none" d="M32.34,27.751c-0.169,5.131,2.119,10.691,6.149,13.943c5.709,4.606,16.405,5.434,22.236,0.382 c6.258-5.422,8.019-13.614,4.216-21.483c-2.164-4.478-6.754-7.965-11.597-9.024c-4.425-0.968-8.838-0.103-12.469,2.037"/><path d="M32.34,27.751c0,0-0.027,0.326-0.076,0.93c-0.018,0.611-0.053,1.522,0.084,2.69c0.263,2.303,1.051,5.805,3.79,9.245 c1.352,1.711,3.327,3.263,5.66,4.364c2.346,1.077,5.049,1.81,7.966,1.964c2.907,0.14,6.074-0.246,9.085-1.69 c3.064-1.517,5.427-4.004,7.231-6.948c1.74-2.994,2.612-6.426,2.469-9.68c-0.04-1.627-0.3-3.209-0.738-4.69 c-0.404-1.498-1.014-2.866-1.681-4.174c-1.432-2.654-3.469-4.671-5.6-6.127c-2.139-1.458-4.405-2.369-6.548-2.785 c-4.306-0.844-7.804,0.109-9.937,1.009c-1.084,0.458-1.872,0.911-2.392,1.234c-0.506,0.333-0.779,0.513-0.779,0.513 s0.297-0.134,0.847-0.383c0.559-0.238,1.394-0.564,2.497-0.859c2.175-0.587,5.568-1.025,9.352,0.141 c1.87,0.567,3.805,1.571,5.573,3.005c1.763,1.428,3.375,3.306,4.413,5.542c0.503,1.157,0.98,2.386,1.259,3.67 c0.318,1.277,0.48,2.61,0.469,3.956c0.034,2.696-0.728,5.441-2.146,7.901c-1.467,2.416-3.499,4.581-5.758,5.761 c-1.156,0.625-2.43,1.013-3.696,1.318c-1.282,0.265-2.576,0.399-3.849,0.41c-2.549,0.017-4.987-0.459-7.128-1.233 c-2.134-0.808-3.93-1.955-5.3-3.356c-2.772-2.81-3.983-6.019-4.536-8.202c-0.289-1.107-0.388-1.997-0.462-2.6 C32.365,28.076,32.34,27.751,32.34,27.751z"/><path d="M20.703,64.402c0,0-0.37,0.366-1.018,1.122c-0.639,0.76-1.549,1.926-2.48,3.59c-0.92,1.674-1.863,3.812-2.453,6.522 c-0.282,1.395-0.186,3.001,0.435,4.554c0.644,1.531,1.866,2.987,3.572,3.827c0.839,0.438,1.785,0.71,2.761,0.815 c0.97,0.109,1.808,0.127,2.749,0.196c1.841,0.106,3.758,0.194,5.742,0.264c3.969,0.138,8.209,0.201,12.664,0.218 c8.908,0.044,18.681-0.146,28.865,0.197c1.303,0.006,2.463,0.078,3.815,0.147c1.329,0.048,2.834,0.021,4.309-0.462 c2.879-0.895,5.2-3.117,6.286-5.802c0.548-1.34,0.787-2.808,0.695-4.212c-0.071-1.4-0.425-2.718-0.909-3.913 c-0.971-2.403-2.396-4.372-3.828-6.156c-0.701-0.889-1.512-1.733-2.267-2.568c-0.826-0.777-1.606-1.579-2.483-2.249 c-1.688-1.415-3.506-2.559-5.33-3.498c-3.656-1.894-7.367-2.885-10.755-3.404c-3.396-0.525-6.492-0.595-9.187-0.502 c-2.697,0.101-5.001,0.333-6.873,0.606c-1.872,0.267-3.31,0.558-4.279,0.773c-0.961,0.227-1.473,0.349-1.473,0.349 s0.52-0.071,1.498-0.204c0.983-0.122,2.435-0.28,4.307-0.387c1.871-0.112,4.169-0.155,6.817-0.057 c2.646,0.106,5.655,0.39,8.877,1.099c3.217,0.702,6.66,1.849,9.951,3.773c1.644,0.955,3.261,2.082,4.746,3.444 c0.775,0.644,1.455,1.412,2.181,2.146c0.664,0.802,1.355,1.566,2.001,2.449c1.288,1.721,2.49,3.548,3.208,5.5 c0.733,1.949,0.88,3.977,0.088,5.761c-0.762,1.783-2.357,3.268-4.28,3.836c-0.913,0.295-1.972,0.333-3.166,0.282 c-1.18-0.067-2.567-0.154-3.832-0.158c-10.347-0.348-20.14,0.06-29.023,0.334c-4.441,0.142-8.656,0.266-12.6,0.328 c-1.972,0.03-3.876,0.045-5.706,0.045c-0.894-0.013-1.858,0.013-2.642-0.031c-0.777-0.034-1.528-0.2-2.201-0.501 c-1.371-0.567-2.414-1.642-3.034-2.856c-0.593-1.232-0.79-2.582-0.632-3.821c0.359-2.556,1.108-4.757,1.863-6.444 c0.768-1.698,1.558-2.928,2.12-3.74C20.371,64.806,20.703,64.402,20.703,64.402z"/><path fill="#815ea2" d="M43.868,61.768c-0.715-1.222-2.213-1.512-3.42-0.897c-0.306,0.156-0.604,0.328-0.906,0.492	c-0.586-0.366-1.315-0.525-2.015-0.361c-0.068,0.016-0.134,0.041-0.202,0.058c-0.613-0.512-1.465-0.723-2.286-0.52	c-5.956,1.473-10.816,6.225-12.513,12.104c-0.342,1.186,0.318,2.495,1.448,2.949c1.076,0.433,2.57,0.114,3.122-1.023	c0.11-0.227,0.231-0.449,0.352-0.654c0.157,0.344,0.392,0.66,0.731,0.913c0.902,0.674,2.499,0.794,3.283-0.195	c1.592-2.011,3.383-3.854,5.362-5.487c1.703-1.405,3.965-2.847,6.148-3.959C44.174,64.576,44.521,62.885,43.868,61.768z"/></svg>